<?xml version="1.0" encoding="UTF-8" standalone="no"?>
<svg
   width="348"
   zoomAndPan="magnify"
   viewBox="0 0 261 166.49998"
   height="222"
   preserveAspectRatio="xMidYMid"
   version="1.0"
   id="svg2899"
   sodipodi:docname="footimg.svg"
   inkscape:version="1.2.2 (b0a84865, 2022-12-01)"
   xmlns:inkscape="http://www.inkscape.org/namespaces/inkscape"
   xmlns:sodipodi="http://sodipodi.sourceforge.net/DTD/sodipodi-0.dtd"
   xmlns="http://www.w3.org/2000/svg"
   xmlns:svg="http://www.w3.org/2000/svg">
  <sodipodi:namedview
     id="namedview2901"
     pagecolor="#ffffff"
     bordercolor="#000000"
     borderopacity="0.25"
     inkscape:showpageshadow="2"
     inkscape:pageopacity="0.0"
     inkscape:pagecheckerboard="0"
     inkscape:deskcolor="#d1d1d1"
     showgrid="false"
     inkscape:zoom="0.78239463"
     inkscape:cx="487.6056"
     inkscape:cy="122.70023"
     inkscape:window-width="1335"
     inkscape:window-height="456"
     inkscape:window-x="177"
     inkscape:window-y="38"
     inkscape:window-maximized="0"
     inkscape:current-layer="svg2899" />
  <defs
     id="defs2837">
    <g
       id="g2820" />
    <clipPath
       id="7e9e083d32">
      <path
         d="m 212.59766,237.85547 h 164.10546 v 60.41406 H 212.59766 Z m 0,0"
         clip-rule="nonzero"
         id="path2822" />
    </clipPath>
    <clipPath
       id="f8e90bbd82">
      <path
         d="m 367,184.31641 h 89.34766 V 265 H 367 Z m 0,0"
         clip-rule="nonzero"
         id="path2825" />
    </clipPath>
    <clipPath
       id="07476e598d">
      <path
         d="m 411.80469,151.70703 h 27.75 v 39 h -27.75 z m 0,0"
         clip-rule="nonzero"
         id="path2828" />
    </clipPath>
    <clipPath
       id="4176608e35">
      <path
         d="M 240.01562,121.71484 H 251 V 151 h -10.98438 z m 0,0"
         clip-rule="nonzero"
         id="path2831" />
    </clipPath>
    <clipPath
       id="0530018689">
      <path
         d="m 240.01562,148 h 60 v 22 h -60 z m 0,0"
         clip-rule="nonzero"
         id="path2834" />
    </clipPath>
  </defs>
  <path
     fill="#da2b63"
     d="m 170.15196,112.63557 -0.008,-0.0273 v 0.004 z m 0,0"
     fill-opacity="1"
     fill-rule="nonzero"
     id="path2839"
     style="fill:#ffffff;fill-opacity:1" />
  <path
     fill="#da2b63"
     d="m 104.62461,127.89729 h 0.004 c -0.008,-0.0156 -0.0195,-0.0391 -0.0273,-0.0586 h -0.004 c 0.008,0.0234 0.0195,0.043 0.0273,0.0586"
     fill-opacity="1"
     fill-rule="nonzero"
     id="path2841"
     style="fill:#ffffff;fill-opacity:1" />
  <path
     fill="#da2b63"
     d="m 68.858987,139.17073 c 0,0.004 0.004,0.008 0.004,0.0117 l -0.004,-0.0117"
     fill-opacity="1"
     fill-rule="nonzero"
     id="path2843"
     style="fill:#ffffff;fill-opacity:1" />
  <g
     clip-path="url(#7e9e083d32)"
     id="g2847"
     transform="translate(-207.92226,-140.18474)"
     style="fill:#ffffff;fill-opacity:1">
    <path
       fill="#da2b63"
       d="m 213.63281,287.59766 c 0.58985,1.4375 1.44531,2.77734 2.47656,3.91796 1.03907,1.14063 2.23829,2.07422 3.48438,2.83594 2.50391,1.50781 5.16016,2.36719 7.77344,2.9336 2.62109,0.55468 5.22656,0.8164 7.80859,0.92968 2.57813,0.10938 5.13281,0.0391 7.66797,-0.11718 5.06641,-0.31641 10.04297,-1.03125 14.95312,-1.9961 2.44922,-0.48437 4.88672,-1.01562 7.30079,-1.61719 2.41796,-0.58984 4.82031,-1.24218 7.20312,-1.9375 3.72656,-1.07421 7.41016,-2.26171 11.05859,-3.53125 2.36329,-0.82031 4.71485,-1.67578 7.05469,-2.55859 3.29688,-1.24219 6.57422,-2.54297 9.83203,-3.86719 5.44922,-2.23437 10.85157,-4.55468 16.22657,-6.92968 2.17968,-0.96094 4.35546,-1.9336 6.53125,-2.90625 1.44531,-0.64844 2.88671,-1.29688 4.32812,-1.94922 8.95703,-4.05469 17.86328,-8.21094 26.72266,-12.47657 5.91015,-2.85937 11.86328,-5.75781 17.74218,-8.70312 1.07422,-0.53516 2.83594,-1.42969 4.01172,-2.02734 0.78125,-0.39844 0.92969,-1.48438 0.25391,-2.04297 -0.043,-0.0312 -0.0781,-0.0586 -0.12109,-0.082 -1.04297,-0.63672 -2.35157,-0.65625 -3.41016,-0.0469 -0.62109,0.35547 -1.28516,0.73828 -1.75781,1.01172 -5.85157,3.39062 -11.77735,6.65234 -17.78907,9.75391 -8.69921,4.5 -17.55468,8.69921 -26.57421,12.50781 -0.62891,0.27344 -1.26172,0.53125 -1.89454,0.79297 -0.32421,0.13672 -0.64453,0.26953 -0.96484,0.40234 -0.14453,0.0547 -0.29297,0.11328 -0.43359,0.17188 -0.21875,0.0898 -0.4375,0.18359 -0.65625,0.26953 -0.21485,0.0898 -0.42578,0.17578 -0.64063,0.26172 -0.16015,0.0703 -0.32422,0.13281 -0.48828,0.19531 -0.38672,0.15625 -0.77344,0.3125 -1.15625,0.46875 -0.008,-0.004 -0.0117,0.004 -0.0195,0.004 -0.55469,0.21875 -1.10938,0.4375 -1.66797,0.66016 -0.55469,0.21484 -1.12109,0.38672 -1.68359,0.60156 -0.55469,0.21485 -1.11328,0.42578 -1.6875,0.59766 l -0.0117,0.004 c -5.3125,2.20703 -10.76953,3.94921 -16.22266,5.70312 -3.83984,1.23828 -7.71484,2.35547 -11.5625,3.52344 l -0.0117,0.004 c -2.41015,0.73047 -4.82031,1.46094 -7.28125,2.00782 -0.004,0.004 -0.004,0.004 -0.008,0.004 l -0.0273,0.008 c -3.03907,0.92578 -6.14063,1.64062 -9.22266,2.38671 -1.17969,0.28125 -2.35547,0.57813 -3.53516,0.84375 -1.17968,0.26954 -2.35546,0.54297 -3.53906,0.79297 -2.36328,0.50391 -4.72265,0.9961 -7.08984,1.42578 -4.73438,0.85938 -9.47656,1.57422 -14.19922,1.94141 -2.35938,0.17969 -4.71094,0.25391 -7.03516,0.21484 -2.32422,-0.043 -4.61718,-0.22656 -6.80468,-0.64062 -2.1836,-0.41016 -4.27735,-1.03906 -6.01172,-2.01953 -1.73828,-0.98047 -3.0586,-2.27344 -3.8125,-3.91406 -0.76953,-1.63282 -0.94922,-3.64454 -0.69922,-5.75391 0.25,-2.11328 0.92187,-4.28906 1.77734,-6.42578 0.86328,-2.14063 1.94141,-4.23828 3.12891,-6.29688 1.17969,-2.0625 2.49219,-4.07031 3.85937,-6.05468 2.75,-3.96094 5.78516,-7.76563 8.9336,-11.48829 3.15625,-3.71875 6.44531,-7.35156 9.79687,-10.9414 l -0.48828,-0.52344 c -3.83984,3.08203 -7.5625,6.32422 -11.12891,9.75 -3.57031,3.42578 -6.98828,7.03516 -10.16015,10.90234 -3.14844,3.88282 -6.09375,8.01172 -8.34766,12.70313 -1.11328,2.35156 -2.04687,4.86328 -2.52734,7.60937 -0.23828,1.3711 -0.35547,2.80469 -0.25,4.28516 0.0937,1.46875 0.41406,2.98438 0.99609,4.42188"
       fill-opacity="1"
       fill-rule="nonzero"
       id="path2845"
       style="fill:#ffffff;fill-opacity:1" />
  </g>
  <path
     fill="#da2b63"
     d="m 442.25497,144.17705 c 0,0.008 0.004,0.0156 0,0.0195 0.008,0.008 0.008,0.0156 0.0117,0.0234 l 0.0664,-0.0469 c -0.0273,0 -0.0547,0 -0.0781,0.004"
     fill-opacity="1"
     fill-rule="nonzero"
     id="path2849" />
  <g
     clip-path="url(#f8e90bbd82)"
     id="g2853"
     transform="translate(-207.92226,-140.18474)"
     style="fill:#ffffff;fill-opacity:1">
    <path
       fill="#da2b63"
       d="m 368.46094,234.10156 5.83593,3.61328 1.57813,0.97657 c 0,0 3.83984,2.38281 3.87109,2.39843 0.88672,0.55078 1.6875,1.25 2.1836,2.17969 0.43359,0.81641 0.5625,1.73828 0.74218,2.63281 0.27735,1.38672 0.55469,2.77344 0.83594,4.16016 v 0.0117 l 1.57031,7.8164 c 0.21485,1.05079 1.03907,1.44532 1.85547,0.875 0.8125,-0.57031 1.50782,-1.91406 1.53125,-2.98437 l 0.19532,-8.39844 -0.004,-0.004 0.11328,-5.63672 8.16016,-5.26172 0.59765,-0.38281 0.008,-0.004 23.22265,-14.96875 0.20703,0.98828 v 0.004 l 0.008,0.0117 0.0859,-0.0117 1.46875,5.8164 0.0117,0.0312 7.74219,35.08594 c 0.16406,0.73047 0.55078,1.21875 1.09766,1.05078 l 0.0312,-0.008 c 0.20312,-0.0625 0.4375,-0.16406 0.66796,-0.32031 l 3.66016,-2.56641 c 0.85156,-0.59375 1.53516,-1.91406 1.5,-2.94922 l -0.30859,-9.82031 c 0.26172,-0.0469 0.4414,-0.25391 0.67187,-0.41797 l 1.60938,-1.12109 0.43359,-0.30078 C 440.49609,246 440.88281,245 440.28906,244.14844 l -0.43359,-0.6211 c -0.1875,-0.27343 -0.46094,-0.5039 -0.76563,-0.66406 -0.64843,-0.34375 -1.46484,-0.39844 -2.04297,0.004 l -0.37109,0.25781 -0.20312,-8.55859 c 0.26171,-0.0469 0.59765,-0.0273 0.82421,-0.1836 l 0.84766,-0.59375 1.14063,-0.79297 c 0.84765,-0.59375 1.0664,-1.8125 0.47265,-2.66406 l -0.42969,-0.62109 c -0.39062,-0.55469 -1.11328,-0.94141 -1.80468,-0.97657 -0.3711,-0.0195 -0.73047,0.0625 -1.02344,0.26563 l -0.30859,0.21484 -0.27344,-9.65625 -0.0156,-0.43359 -0.1914,-6.77344 -0.0274,-0.95312 11.73438,-7.36719 0.0937,-0.0586 c 2.6875,-1.73829 7,-6.46094 8.29687,-9.9375 0.44532,-1.19141 0.53907,-2.23829 0.0937,-2.96485 -0.42187,-0.67969 -1.27343,-1.01953 -2.38281,-1.11328 -3.52344,-0.30078 -9.61719,1.91406 -12.36328,3.69531 -0.0508,0.0312 -4.16797,3.11719 -10.17969,7.64844 -0.19531,0.14844 -0.39062,0.29688 -0.58984,0.44922 -0.30469,0.22656 -0.61328,0.46094 -0.92969,0.69531 l -0.58594,-0.23828 -0.39062,-0.15625 -5.39453,-2.20312 -10.28125,-4.1875 0.30859,-0.21485 c 0.85156,-0.59375 1.10938,-1.75781 0.51563,-2.60937 l -0.4336,-0.6211 c -0.59375,-0.85156 -1.64453,-0.82422 -2.49609,-0.23437 l -1.98047,1.38672 c -0.23047,0.16015 -0.51953,0.21484 -0.65234,0.4414 l -8.13672,-3.41797 0.36718,-0.2539 c 0.85157,-0.59375 1.15235,-1.72266 0.55469,-2.57813 l -0.42969,-0.61718 c -0.59375,-0.85157 -1.87109,-1.12891 -2.72265,-0.53516 l -2.04688,1.42969 c -0.22656,0.16015 -0.40625,0.37109 -0.53515,0.59375 l -9.11328,-3.70313 c -0.96094,-0.39062 -2.4961,-0.29297 -3.34766,0.30078 l -3.66016,2.55469 c -0.85156,0.59375 -0.78906,1.60938 0.0859,2.17578 l 28.97656,18.76563 5.83203,3.78125 1.36719,0.88281 c -0.44531,0.33594 -0.89062,0.67187 -1.33203,1.00781 -12.17578,9.17969 -24.76562,18.67578 -29.11719,21.96094 l -5.07812,-1.73828 -5.7461,-1.96875 -2.37109,-0.8086 c -1.01172,-0.34765 -2.50391,-0.16406 -3.32031,0.39844 -0.81641,0.57422 -0.73828,1.5 0.16797,2.0625"
       fill-opacity="1"
       fill-rule="nonzero"
       id="path2851"
       style="fill:#ffffff;fill-opacity:1" />
  </g>
  <g
     clip-path="url(#07476e598d)"
     id="g2857"
     transform="translate(-207.92226,-140.18474)"
     style="fill:#ffffff;fill-opacity:1">
    <path
       fill="#f99d19"
       d="m 425.67969,151.70703 c -7.66016,0 -13.8711,6.11328 -13.8711,13.65234 0,10.23438 13.8711,25.34766 13.8711,25.34766 0,0 13.875,-15.11328 13.875,-25.34766 0,-7.53906 -6.21485,-13.65234 -13.875,-13.65234 z m 0,18.52734 c -2.73438,0 -4.95313,-2.1875 -4.95313,-4.875 0,-2.6914 2.21875,-4.875 4.95313,-4.875 2.73437,0 4.95703,2.1836 4.95703,4.875 0,2.6875 -2.22266,4.875 -4.95703,4.875 z m 0,0"
       fill-opacity="1"
       fill-rule="nonzero"
       id="path2855"
       style="fill:#ffffff;fill-opacity:1" />
  </g>
  <g
     fill="#da2b63"
     fill-opacity="1"
     id="g2865"
     transform="translate(-207.92226,-140.18474)"
     style="fill:#ffffff;fill-opacity:1">
    <g
       transform="translate(220.10825,230.99101)"
       id="g2863"
       style="fill:#ffffff;fill-opacity:1">
      <g
         id="g2861"
         style="fill:#ffffff;fill-opacity:1">
        <path
           d="M 45.171875,-46.328125 H 28.9375 V 0 H 17.390625 V -46.328125 H 1.15625 v -9.28125 h 44.015625 z m 0,0"
           id="path2859"
           style="fill:#ffffff;fill-opacity:1" />
      </g>
    </g>
  </g>
  <g
     fill="#da2b63"
     fill-opacity="1"
     id="g2873"
     transform="translate(-207.92226,-140.18474)"
     style="fill:#ffffff;fill-opacity:1">
    <g
       transform="translate(266.39526,230.99101)"
       id="g2871"
       style="fill:#ffffff;fill-opacity:1">
      <g
         id="g2869"
         style="fill:#ffffff;fill-opacity:1">
        <path
           d="m 17.390625,0 h -11.5625 v -55.609375 h 11.5625 z m 0,0"
           id="path2867"
           style="fill:#ffffff;fill-opacity:1" />
      </g>
    </g>
  </g>
  <g
     fill="#da2b63"
     fill-opacity="1"
     id="g2881"
     transform="translate(-207.92226,-140.18474)"
     style="fill:#ffffff;fill-opacity:1">
    <g
       transform="translate(289.61539,230.99101)"
       id="g2879"
       style="fill:#ffffff;fill-opacity:1">
      <g
         id="g2877"
         style="fill:#ffffff;fill-opacity:1">
        <path
           d="m 24.609375,-27.9375 c 3.59375,0 6.226563,-0.863281 7.90625,-2.59375 1.675781,-1.738281 2.515625,-4.117188 2.515625,-7.140625 0,-1.375 -0.214844,-2.628906 -0.640625,-3.765625 -0.417969,-1.144531 -1.058594,-2.117188 -1.921875,-2.921875 -0.855469,-0.800781 -1.933594,-1.414063 -3.234375,-1.84375 -1.304687,-0.4375 -2.84375,-0.65625 -4.625,-0.65625 h -7.28125 V -27.9375 Z m 0,-27.671875 c 3.800781,0 7.085937,0.449219 9.859375,1.34375 2.769531,0.898437 5.046875,2.148437 6.828125,3.75 1.789063,1.59375 3.113281,3.492187 3.96875,5.6875 0.863281,2.1875 1.296875,4.574219 1.296875,7.15625 0,2.742187 -0.449219,5.246094 -1.34375,7.515625 -0.898438,2.273438 -2.25,4.226562 -4.0625,5.859375 -1.8125,1.636719 -4.101562,2.90625 -6.859375,3.8125 -2.761719,0.90625 -5.992187,1.359375 -9.6875,1.359375 h -7.28125 V 0 h -11.5 v -55.609375 z m 0,0"
           id="path2875"
           style="fill:#ffffff;fill-opacity:1" />
      </g>
    </g>
  </g>
  <g
     fill="#da2b63"
     fill-opacity="1"
     id="g2889"
     transform="translate(-207.92226,-140.18474)"
     style="fill:#ffffff;fill-opacity:1">
    <g
       transform="translate(337.66498,230.99101)"
       id="g2887"
       style="fill:#ffffff;fill-opacity:1">
      <g
         id="g2885"
         style="fill:#ffffff;fill-opacity:1">
        <path
           d="m 35.9375,-44.953125 c -0.355469,0.59375 -0.71875,1.027344 -1.09375,1.296875 -0.367188,0.261719 -0.839844,0.390625 -1.421875,0.390625 -0.5625,0 -1.171875,-0.195313 -1.828125,-0.59375 -0.648438,-0.394531 -1.40625,-0.820313 -2.28125,-1.28125 -0.867188,-0.457031 -1.859375,-0.882813 -2.984375,-1.28125 -1.125,-0.394531 -2.445313,-0.59375 -3.953125,-0.59375 -2.65625,0 -4.652344,0.59375 -5.984375,1.78125 -1.324219,1.1875 -1.984375,2.742187 -1.984375,4.65625 0,1.230469 0.363281,2.246094 1.09375,3.046875 0.726562,0.804688 1.6875,1.5 2.875,2.09375 1.1875,0.585938 2.53125,1.105469 4.03125,1.5625 1.507812,0.460938 3.054688,0.964844 4.640625,1.515625 1.59375,0.554687 3.140625,1.199219 4.640625,1.9375 1.507812,0.742187 2.859375,1.671875 4.046875,2.796875 1.1875,1.125 2.144531,2.5 2.875,4.125 0.726563,1.617188 1.09375,3.585938 1.09375,5.90625 0,2.53125 -0.445313,4.902344 -1.328125,7.109375 -0.875,2.210937 -2.148438,4.140625 -3.8125,5.796875 -1.65625,1.648438 -3.710938,2.945312 -6.15625,3.890625 -2.4375,0.9375 -5.199219,1.40625 -8.28125,1.40625 -1.773438,0 -3.53125,-0.179687 -5.28125,-0.53125 -1.75,-0.351563 -3.4375,-0.847656 -5.0625,-1.484375 -1.617188,-0.644531 -3.140625,-1.414062 -4.578125,-2.3125 -1.429687,-0.894531 -2.679687,-1.890625 -3.75,-2.984375 l 3.375,-5.4375 c 0.28125,-0.414063 0.648437,-0.753906 1.109375,-1.015625 0.457031,-0.269531 0.941406,-0.40625 1.453125,-0.40625 0.695313,0 1.425781,0.257812 2.1875,0.765625 0.769531,0.511719 1.648437,1.074219 2.640625,1.6875 1,0.617187 2.15625,1.179687 3.46875,1.6875 1.320312,0.511719 2.898438,0.765625 4.734375,0.765625 2.6875,0 4.765625,-0.613281 6.234375,-1.84375 1.46875,-1.226562 2.203125,-3.054688 2.203125,-5.484375 0,-1.40625 -0.367187,-2.539063 -1.09375,-3.40625 -0.730469,-0.863281 -1.683594,-1.585937 -2.859375,-2.171875 -1.179688,-0.59375 -2.523438,-1.097656 -4.03125,-1.515625 -1.5,-0.425781 -3.042969,-0.894531 -4.625,-1.40625 -1.585938,-0.507813 -3.132812,-1.125 -4.640625,-1.84375 -1.511719,-0.71875 -2.855469,-1.660156 -4.03125,-2.828125 -1.167969,-1.175781 -2.117187,-2.632812 -2.84375,-4.375 -0.730469,-1.738281 -1.09375,-3.894531 -1.09375,-6.46875 0,-2.070312 0.40625,-4.078125 1.21875,-6.015625 0.820313,-1.945313 2.023437,-3.671875 3.609375,-5.171875 1.582031,-1.507812 3.53125,-2.722656 5.84375,-3.640625 2.3125,-0.925781 4.960938,-1.390625 7.953125,-1.390625 3.34375,0 6.4375,0.523438 9.28125,1.5625 2.851563,1.03125 5.265625,2.464844 7.234375,4.296875 z m 0,0"
           id="path2883"
           style="fill:#ffffff;fill-opacity:1" />
      </g>
    </g>
  </g>
  <g
     clip-path="url(#0530018689)"
     id="g2897"
     transform="translate(-207.92226,-140.18474)"
     style="fill:#ffffff;fill-opacity:1">
    <path
       fill="#ff3131"
       d="m 236.76172,169.12891 c 0,0 14.41797,-17.84766 32.21875,-10.52344 0,0 12.33594,-16.03125 31.89062,-7.39844 0,0 -22.03125,-2.87891 -26.49609,9.03906 l 3.47266,3.02344 c 0,0 -12.13282,4.20313 -11.59375,2.55859 1.07812,-3.28515 1.29687,-3.17578 1.29687,-3.17578 0,0 -9.54297,-7.55078 -30.78906,6.47657 z m 0,0"
       fill-opacity="1"
       fill-rule="nonzero"
       id="path2895"
       style="fill:#ffffff;fill-opacity:1" />
  </g>
</svg>
